<svg width="142" height="346" viewBox="0 0 142 346" fill="none" xmlns="http://www.w3.org/2000/svg">
<path d="M7.68406 60.0397L22.4599 57.9631L22.9981 53.0942L13.0289 54.4953L13.0596 19.2601L7.71899 20.0107L7.68406 60.0397ZM38.0288 44.2112L39.7989 55.5263L45.3769 54.7424L38.7064 15.6557L31.1701 16.7148L24.6671 57.6529L30.067 56.894L31.6793 45.1036L38.0288 44.2112ZM32.3958 40.0298C33.2915 33.433 34.6046 24.5006 34.7855 21.2397L34.9635 21.2147C35.3752 25.351 36.3189 31.8691 37.3804 39.3293L32.3958 40.0298ZM48.2783 14.3104L48.2515 44.9914C48.2457 51.583 51.1506 54.4702 57.144 53.6278C63.3154 52.7605 66.1076 48.6533 66.1131 42.4212L66.1398 11.8002L60.8585 12.5424L60.8316 43.2833C60.829 46.2795 59.9372 48.3821 57.2075 48.7657C54.5965 49.1326 53.5894 47.3569 53.5921 44.3007L53.6189 13.5599L48.2783 14.3104ZM76.4714 50.3723L76.4822 38.028C76.4885 30.7772 76.4342 24.973 76.2011 20.1525L76.2604 20.1442C76.4967 21.3093 76.792 22.9455 77.3242 24.9677L83.8296 49.3382L89.823 48.4959L89.8579 8.4668L84.9327 9.15901L84.9222 21.1438C84.9165 27.6754 84.9116 33.3083 85.2038 38.42L85.0851 38.4367C84.7899 36.7406 84.3766 34.402 83.5485 31.5226L77.7525 10.1681L71.5217 11.0438L71.4868 51.0728L76.4714 50.3723ZM106.408 34.4213L106.407 36.3988C106.404 39.6946 105.808 41.9353 103.257 42.2939C100.646 42.6608 99.995 40.4755 99.9978 37.2995L100.016 16.2663C100.019 13.2102 100.733 11.2525 103.165 10.9105C105.717 10.5519 106.309 12.446 106.306 15.3223L106.304 17.5994L111.645 16.8489L111.646 15.171C111.651 9.71795 110.291 5.05594 103.229 6.04837C97.3543 6.87401 94.562 11.1011 94.5565 17.3931L94.5388 37.6473C94.5336 43.6397 95.9536 48.1735 103.074 47.1727C110.967 46.0635 111.803 39.8945 111.807 35.1006L111.808 33.6624L106.408 34.4213ZM115.587 44.875L120.927 44.1244L120.944 25.1885L128.183 24.1711L128.167 43.107L133.507 42.3564L133.542 2.32736L128.202 3.07794L128.188 19.1974L120.948 20.2149L120.962 4.09539L115.621 4.84597L115.587 44.875ZM39.7624 112.524L39.7746 98.5622C39.7752 97.8431 39.8348 97.4752 39.8944 97.1673L47.3929 71.4279L41.7555 72.2201C40.1476 79.0369 38.1231 87.2304 37.2886 91.6617L37.2292 91.67C36.6394 87.6786 34.5694 80.0606 32.8545 73.4711L26.9797 74.2967L34.3168 97.5317C34.4351 97.9944 34.4941 98.2857 34.4937 98.7651L34.4811 113.267L39.7624 112.524ZM58.2545 69.3621C52.4392 70.1794 48.935 74.147 48.9287 81.4577L48.9117 100.873C48.9055 108.004 51.5725 111.404 57.8626 110.52C64.2121 109.627 67.3009 105.658 67.3074 98.2278L67.3242 78.9323C67.3304 71.8014 64.1886 68.5281 58.2545 69.3621ZM58.1316 74.2326C60.7426 73.8657 61.9278 75.5565 61.9246 79.2119L61.9069 99.526C61.9034 103.541 60.6559 105.274 58.1042 105.633C55.7306 105.966 54.3672 104.54 54.3705 100.705L54.3884 80.271C54.3917 76.4958 55.6393 74.5829 58.1316 74.2326ZM71.8431 67.9916L71.8163 98.6726C71.8105 105.264 74.7154 108.151 80.7088 107.309C86.8802 106.442 89.6724 102.334 89.6779 96.1024L89.7046 65.4813L84.4233 66.2236L84.3965 96.9645C84.3938 99.9606 83.502 102.063 80.7723 102.447C78.1613 102.814 77.1542 101.038 77.1569 97.9819L77.1837 67.241L71.8431 67.9916ZM95.0516 104.754L100.392 104.003L100.408 85.7866L102.248 85.5281C105.927 85.011 106.638 86.1693 106.633 91.143C106.631 94.0194 106.506 100.688 107.038 103.069L112.142 102.352C111.728 99.9537 111.793 93.4736 111.796 90.0579C111.801 84.6648 110.556 83.1021 108.124 82.3654C109.965 81.4477 112.162 79.2815 112.167 73.409L112.168 71.7911C112.174 64.8399 108.913 62.7818 102.919 63.6241L95.0865 64.725L95.0516 104.754ZM100.423 68.4687L102.381 68.1934C106.061 67.6764 106.89 69.5371 106.887 72.8928L106.885 74.4509C106.882 78.7654 105.753 80.5418 102.311 81.0255L100.412 81.2923L100.423 68.4687ZM35.6257 244.061L35.5907 284.09L40.9314 283.339L40.9663 243.31L35.6257 244.061ZM51.4699 281.858L51.4807 269.514C51.487 262.263 51.4327 256.459 51.1996 251.638L51.259 251.63C51.4953 252.795 51.7905 254.431 52.3227 256.453L58.8281 280.824L64.8215 279.982L64.8565 239.952L59.9312 240.645L59.9207 252.629C59.915 259.161 59.9101 264.794 60.2023 269.906L60.0837 269.922C59.7885 268.226 59.3752 265.888 58.547 263.008L52.751 241.654L46.5202 242.529L46.4853 282.559L51.4699 281.858ZM74.1528 278.67L79.4342 277.928L79.4648 242.872L85.8735 241.972L85.8779 236.998L67.779 239.542L67.7747 244.515L74.1834 243.615L74.1528 278.67ZM97.0186 234.893C91.2032 235.71 87.6991 239.678 87.6927 246.989L87.6758 266.404C87.6696 273.535 90.3366 276.935 96.6267 276.051C102.976 275.158 106.065 271.189 106.071 263.759L106.088 244.463C106.094 237.332 102.953 234.059 97.0186 234.893ZM96.8957 239.764C99.5067 239.397 100.692 241.088 100.689 244.743L100.671 265.057C100.667 269.072 99.4199 270.805 96.8683 271.164C94.4947 271.497 93.1312 270.071 93.1346 266.236L93.1524 245.802C93.1557 242.027 94.4034 240.114 96.8957 239.764ZM7.23252 345.068L12.5732 344.318L12.5891 326.101L14.4286 325.842C18.1077 325.325 18.8187 326.483 18.8144 331.457C18.8119 334.333 18.6874 341.002 19.2193 343.383L24.3226 342.666C23.9094 340.268 23.9744 333.788 23.9773 330.372C23.982 324.979 22.7374 323.416 20.3054 322.68C22.1455 321.762 24.3427 319.596 24.3479 313.723L24.3493 312.105C24.3553 305.154 21.0938 303.096 15.1004 303.938L7.26745 305.039L7.23252 345.068ZM12.6042 308.783L14.5624 308.508C18.2415 307.99 19.0706 309.851 19.0677 313.207L19.0663 314.765C19.0625 319.079 17.9336 320.856 14.4919 321.34L12.593 321.606L12.6042 308.783ZM43.164 316.351L34.3816 317.586L34.3915 306.2L43.6486 304.899L43.653 299.925L29.0552 301.977L29.0203 342.006L43.7367 339.938L44.3938 334.932L34.3652 336.342L34.3773 322.499L43.1597 321.265L43.164 316.351ZM59.8879 326.104L61.658 337.419L67.2361 336.635L60.5655 297.549L53.0292 298.608L46.5262 339.546L51.9262 338.787L53.5385 326.996L59.8879 326.104ZM54.2549 321.923C55.1507 315.326 56.4638 306.393 56.6446 303.133L56.8226 303.108C57.2344 307.244 58.178 313.762 59.2395 321.222L54.2549 321.923ZM70.3398 336.199L85.1156 334.122L85.6539 329.253L75.6847 330.654L75.7154 295.419L70.3748 296.17L70.3398 336.199ZM88.1654 293.67L88.1304 333.699L93.4711 332.948L93.506 292.919L88.1654 293.67ZM102.759 331.643L108.041 330.9L108.071 295.845L114.48 294.944L114.484 289.971L96.3854 292.514L96.3811 297.488L102.79 296.587L102.759 331.643ZM129.038 327.949L129.05 313.987C129.051 313.268 129.11 312.9 129.17 312.592L136.668 286.853L131.031 287.645C129.423 294.462 127.399 302.655 126.564 307.087L126.505 307.095C125.915 303.104 123.845 295.486 122.13 288.896L116.255 289.722L123.592 312.957C123.711 313.42 123.77 313.711 123.769 314.19L123.757 328.692L129.038 327.949Z" fill="#EFEEFF"/>
<path d="M7.68406 60.0397L22.4599 57.9631L22.9981 53.0942L13.0289 54.4953L13.0596 19.2601L7.71899 20.0107L7.68406 60.0397ZM38.0288 44.2112L39.7989 55.5263L45.3769 54.7424L38.7064 15.6557L31.1701 16.7148L24.6671 57.6529L30.067 56.894L31.6793 45.1036L38.0288 44.2112ZM32.3958 40.0298C33.2915 33.433 34.6046 24.5006 34.7855 21.2397L34.9635 21.2147C35.3752 25.351 36.3189 31.8691 37.3804 39.3293L32.3958 40.0298ZM48.2783 14.3104L48.2515 44.9914C48.2457 51.583 51.1506 54.4702 57.144 53.6278C63.3154 52.7605 66.1076 48.6533 66.1131 42.4212L66.1398 11.8002L60.8585 12.5424L60.8316 43.2833C60.829 46.2795 59.9372 48.3821 57.2075 48.7657C54.5965 49.1326 53.5894 47.3569 53.5921 44.3007L53.6189 13.5599L48.2783 14.3104ZM76.4714 50.3723L76.4822 38.028C76.4885 30.7772 76.4342 24.973 76.2011 20.1525L76.2604 20.1442C76.4967 21.3093 76.792 22.9455 77.3242 24.9677L83.8296 49.3382L89.823 48.4959L89.8579 8.4668L84.9327 9.15901L84.9222 21.1438C84.9165 27.6754 84.9116 33.3083 85.2038 38.42L85.0851 38.4367C84.7899 36.7406 84.3766 34.402 83.5485 31.5226L77.7525 10.1681L71.5217 11.0438L71.4868 51.0728L76.4714 50.3723ZM106.408 34.4213L106.407 36.3988C106.404 39.6946 105.808 41.9353 103.257 42.2939C100.646 42.6608 99.995 40.4755 99.9978 37.2995L100.016 16.2663C100.019 13.2102 100.733 11.2525 103.165 10.9105C105.717 10.5519 106.309 12.446 106.306 15.3223L106.304 17.5994L111.645 16.8489L111.646 15.171C111.651 9.71795 110.291 5.05594 103.229 6.04837C97.3543 6.87401 94.562 11.1011 94.5565 17.3931L94.5388 37.6473C94.5336 43.6397 95.9536 48.1735 103.074 47.1727C110.967 46.0635 111.803 39.8945 111.807 35.1006L111.808 33.6624L106.408 34.4213ZM115.587 44.875L120.927 44.1244L120.944 25.1885L128.183 24.1711L128.167 43.107L133.507 42.3564L133.542 2.32736L128.202 3.07794L128.188 19.1974L120.948 20.2149L120.962 4.09539L115.621 4.84597L115.587 44.875ZM39.7624 112.524L39.7746 98.5622C39.7752 97.8431 39.8348 97.4752 39.8944 97.1673L47.3929 71.4279L41.7555 72.2201C40.1476 79.0369 38.1231 87.2304 37.2886 91.6617L37.2292 91.67C36.6394 87.6786 34.5694 80.0606 32.8545 73.4711L26.9797 74.2967L34.3168 97.5317C34.4351 97.9944 34.4941 98.2857 34.4937 98.7651L34.4811 113.267L39.7624 112.524ZM58.2545 69.3621C52.4392 70.1794 48.935 74.147 48.9287 81.4577L48.9117 100.873C48.9055 108.004 51.5725 111.404 57.8626 110.52C64.2121 109.627 67.3009 105.658 67.3074 98.2278L67.3242 78.9323C67.3304 71.8014 64.1886 68.5281 58.2545 69.3621ZM58.1316 74.2326C60.7426 73.8657 61.9278 75.5565 61.9246 79.2119L61.9069 99.526C61.9034 103.541 60.6559 105.274 58.1042 105.633C55.7306 105.966 54.3672 104.54 54.3705 100.705L54.3884 80.271C54.3917 76.4958 55.6393 74.5829 58.1316 74.2326ZM71.8431 67.9916L71.8163 98.6726C71.8105 105.264 74.7154 108.151 80.7088 107.309C86.8802 106.442 89.6724 102.334 89.6779 96.1024L89.7046 65.4813L84.4233 66.2236L84.3965 96.9645C84.3938 99.9606 83.502 102.063 80.7723 102.447C78.1613 102.814 77.1542 101.038 77.1569 97.9819L77.1837 67.241L71.8431 67.9916ZM95.0516 104.754L100.392 104.003L100.408 85.7866L102.248 85.5281C105.927 85.011 106.638 86.1693 106.633 91.143C106.631 94.0194 106.506 100.688 107.038 103.069L112.142 102.352C111.728 99.9537 111.793 93.4736 111.796 90.0579C111.801 84.6648 110.556 83.1021 108.124 82.3654C109.965 81.4477 112.162 79.2815 112.167 73.409L112.168 71.7911C112.174 64.8399 108.913 62.7818 102.919 63.6241L95.0865 64.725L95.0516 104.754ZM100.423 68.4687L102.381 68.1934C106.061 67.6764 106.89 69.5371 106.887 72.8928L106.885 74.4509C106.882 78.7654 105.753 80.5418 102.311 81.0255L100.412 81.2923L100.423 68.4687ZM35.6257 244.061L35.5907 284.09L40.9314 283.339L40.9663 243.31L35.6257 244.061ZM51.4699 281.858L51.4807 269.514C51.487 262.263 51.4327 256.459 51.1996 251.638L51.259 251.63C51.4953 252.795 51.7905 254.431 52.3227 256.453L58.8281 280.824L64.8215 279.982L64.8565 239.952L59.9312 240.645L59.9207 252.629C59.915 259.161 59.9101 264.794 60.2023 269.906L60.0837 269.922C59.7885 268.226 59.3752 265.888 58.547 263.008L52.751 241.654L46.5202 242.529L46.4853 282.559L51.4699 281.858ZM74.1528 278.67L79.4342 277.928L79.4648 242.872L85.8735 241.972L85.8779 236.998L67.779 239.542L67.7747 244.515L74.1834 243.615L74.1528 278.67ZM97.0186 234.893C91.2032 235.71 87.6991 239.678 87.6927 246.989L87.6758 266.404C87.6696 273.535 90.3366 276.935 96.6267 276.051C102.976 275.158 106.065 271.189 106.071 263.759L106.088 244.463C106.094 237.332 102.953 234.059 97.0186 234.893ZM96.8957 239.764C99.5067 239.397 100.692 241.088 100.689 244.743L100.671 265.057C100.667 269.072 99.4199 270.805 96.8683 271.164C94.4947 271.497 93.1312 270.071 93.1346 266.236L93.1524 245.802C93.1557 242.027 94.4034 240.114 96.8957 239.764ZM7.23252 345.068L12.5732 344.318L12.5891 326.101L14.4286 325.842C18.1077 325.325 18.8187 326.483 18.8144 331.457C18.8119 334.333 18.6874 341.002 19.2193 343.383L24.3226 342.666C23.9094 340.268 23.9744 333.788 23.9773 330.372C23.982 324.979 22.7374 323.416 20.3054 322.68C22.1455 321.762 24.3427 319.596 24.3479 313.723L24.3493 312.105C24.3553 305.154 21.0938 303.096 15.1004 303.938L7.26745 305.039L7.23252 345.068ZM12.6042 308.783L14.5624 308.508C18.2415 307.99 19.0706 309.851 19.0677 313.207L19.0663 314.765C19.0625 319.079 17.9336 320.856 14.4919 321.34L12.593 321.606L12.6042 308.783ZM43.164 316.351L34.3816 317.586L34.3915 306.2L43.6486 304.899L43.653 299.925L29.0552 301.977L29.0203 342.006L43.7367 339.938L44.3938 334.932L34.3652 336.342L34.3773 322.499L43.1597 321.265L43.164 316.351ZM59.8879 326.104L61.658 337.419L67.2361 336.635L60.5655 297.549L53.0292 298.608L46.5262 339.546L51.9262 338.787L53.5385 326.996L59.8879 326.104ZM54.2549 321.923C55.1507 315.326 56.4638 306.393 56.6446 303.133L56.8226 303.108C57.2344 307.244 58.178 313.762 59.2395 321.222L54.2549 321.923ZM70.3398 336.199L85.1156 334.122L85.6539 329.253L75.6847 330.654L75.7154 295.419L70.3748 296.17L70.3398 336.199ZM88.1654 293.67L88.1304 333.699L93.4711 332.948L93.506 292.919L88.1654 293.67ZM102.759 331.643L108.041 330.9L108.071 295.845L114.48 294.944L114.484 289.971L96.3854 292.514L96.3811 297.488L102.79 296.587L102.759 331.643ZM129.038 327.949L129.05 313.987C129.051 313.268 129.11 312.9 129.17 312.592L136.668 286.853L131.031 287.645C129.423 294.462 127.399 302.655 126.564 307.087L126.505 307.095C125.915 303.104 123.845 295.486 122.13 288.896L116.255 289.722L123.592 312.957C123.711 313.42 123.77 313.711 123.769 314.19L123.757 328.692L129.038 327.949Z" fill="#4E4E4E"/>
<path d="M11.6744 173.465C12.9877 164.353 15.0164 151.365 15.8541 143.339L15.9727 143.322C16.7376 150.764 18.6846 163.312 19.8634 172.314L25.3821 171.538L31.3511 130.675L25.9511 131.434C24.9342 140.924 23.3198 155.052 22.8386 162.549L22.7199 162.566C22.0743 154.508 20.009 141.556 18.7709 132.443L13.4896 133.186C12.2949 142.401 10.1462 156.963 9.42745 164.673L9.30877 164.69C9.01818 157.721 7.48824 143.136 6.42806 134.178L0.790707 134.97L6.21511 174.232L11.6744 173.465ZM34.798 130.191L34.763 170.22L40.1037 169.469L40.1386 129.44L34.798 130.191ZM45.6576 168.689L60.4334 166.612L60.9716 161.743L51.0024 163.144L51.0332 127.909L45.6925 128.66L45.6576 168.689ZM63.4482 166.189L71.2811 165.088C80.4789 163.795 81.4935 157.062 81.4988 150.949L81.5124 135.369C81.5185 128.418 79.9204 123.849 71.4347 125.042L63.4831 126.16L63.4482 166.189ZM68.8197 130.023L70.956 129.723C75.4065 129.097 76.1164 131.574 76.1128 135.649L76.0981 152.547C76.094 157.161 75.261 159.915 70.9291 160.524L68.7929 160.824L68.8197 130.023ZM100.307 137.341L91.5244 138.576L91.5343 127.19L100.791 125.889L100.796 120.916L86.198 122.967L86.1631 162.996L100.88 160.928L101.537 155.922L91.508 157.332L91.5201 143.489L100.303 142.255L100.307 137.341ZM103.861 148.945L103.859 151.282C103.855 156.555 105.631 160.799 112.574 159.824C119.635 158.831 121.48 153.299 121.484 147.667C121.49 141.015 119.712 138.748 113.96 135.243C110.402 133.107 109.81 131.752 109.812 128.576C109.815 125.7 110.41 123.579 112.724 123.254C115.039 122.928 115.571 124.771 115.568 127.767L115.567 129.625L120.848 128.882L120.85 126.905C120.854 122.231 119.493 117.689 112.788 118.631C106.023 119.582 104.476 124.892 104.471 130.105C104.466 135.978 106.719 137.818 110.929 140.582C115.199 143.337 116.147 144.762 116.143 149.196C116.14 152.552 115.307 154.886 112.696 155.253C110.204 155.603 109.138 153.896 109.141 150.6L109.143 148.203L103.861 148.945ZM129.363 156.925L134.644 156.183L134.674 121.127L141.083 120.227L141.088 115.253L122.989 117.797L122.984 122.77L129.393 121.87L129.363 156.925ZM5.07197 231.386L12.9049 230.285C22.1027 228.992 23.1173 222.259 23.1226 216.147L23.1362 200.567C23.1423 193.615 21.5442 189.047 13.0585 190.239L5.1069 191.357L5.07197 231.386ZM10.4435 195.22L12.5798 194.92C17.0303 194.295 17.7402 196.771 17.7366 200.846L17.7219 217.745C17.7178 222.359 16.8848 225.112 12.5529 225.721L10.4166 226.021L10.4435 195.22ZM27.8462 228.185L33.1869 227.435L33.2028 209.218L35.0423 208.959C38.7215 208.442 39.4324 209.6 39.4281 214.574C39.4256 217.45 39.3011 224.119 39.833 226.5L44.9363 225.783C44.5231 223.385 44.5881 216.905 44.591 213.489C44.5958 208.096 43.3511 206.533 40.9191 205.796C42.7592 204.879 44.9565 202.713 44.9616 196.84L44.963 195.222C44.9691 188.271 41.7075 186.213 35.7141 187.055L27.8812 188.156L27.8462 228.185ZM33.2179 191.9L35.1761 191.625C38.8552 191.107 39.6843 192.968 39.6814 196.324L39.68 197.882C39.6762 202.196 38.5474 203.973 35.1056 204.457L33.2067 204.723L33.2179 191.9ZM63.7777 199.468L54.9953 200.703L55.0052 189.317L64.2623 188.016L64.2667 183.042L49.6689 185.094L49.634 225.123L64.3504 223.055L65.0075 218.049L54.9789 219.459L54.991 205.616L63.7734 204.382L63.7777 199.468ZM80.5016 209.221L82.2717 220.536L87.8498 219.752L81.1792 180.665L73.6429 181.725L67.1399 222.663L72.5399 221.904L74.1522 210.113L80.5016 209.221ZM74.8686 205.04C75.7644 198.443 77.0775 189.51 77.2583 186.249L77.4364 186.224C77.8481 190.361 78.7917 196.879 79.8532 204.339L74.8686 205.04ZM111.064 216.49L116.168 215.772L116.203 175.743L108.548 176.819C106.699 187.325 104.136 201.106 103.538 206.583L103.478 206.591C102.949 201.273 100.943 188.733 99.1126 178.145L91.2203 179.254L91.1854 219.283L96.0513 218.599L96.0642 203.798C96.0702 196.907 95.9001 187.884 95.7855 183.226L95.9042 183.21C96.7879 190.335 99.3834 207.766 100.799 217.932L105.842 217.223C107.752 205.212 110.318 188.074 111.273 181.11L111.333 181.101C111.21 185.552 111.084 193.778 111.078 200.849L111.064 216.49ZM119.777 203.701L119.775 206.038C119.77 211.312 121.546 215.556 128.489 214.58C135.551 213.587 137.395 208.056 137.4 202.423C137.406 195.771 135.628 193.505 129.875 189.999C126.317 187.863 125.725 186.508 125.728 183.332C125.73 180.456 126.326 178.335 128.64 178.01C130.954 177.684 131.486 179.527 131.484 182.523L131.482 184.381L136.764 183.639L136.765 181.661C136.769 176.987 135.409 172.445 128.703 173.387C121.938 174.338 120.391 179.648 120.387 184.862C120.381 190.734 122.634 192.575 126.845 195.338C131.114 198.093 132.062 199.518 132.059 203.952C132.056 207.308 131.223 209.642 128.612 210.009C126.12 210.359 125.053 208.652 125.056 205.356L125.058 202.959L119.777 203.701Z" fill="#EFEEFF"/>
</svg>
